<?xml version="1.0" encoding="UTF-8" standalone="no"?>
<!DOCTYPE svg PUBLIC "-//W3C//DTD SVG 1.1//EN" "http://www.w3.org/Graphics/SVG/1.1/DTD/svg11.dtd">
<svg width="100%" height="100%" viewBox="0 0 32 32" version="1.1" xmlns="http://www.w3.org/2000/svg" xmlns:xlink="http://www.w3.org/1999/xlink" xml:space="preserve" xmlns:serif="http://www.serif.com/" style="fill-rule:evenodd;clip-rule:evenodd;stroke-linejoin:round;stroke-miterlimit:2;">
    <g id="score" transform="matrix(0.999796,0,0,0.999796,-0.325175,0.492356)">
        <g transform="matrix(-1.147754,-1.147754,0.186212,-0.186212,30.786655,36.443615)">
            <path d="M2.823,20.655C2.702,20.28 2.606,19.676 2.547,18.927C2.463,17.857 2.464,16.614 2.551,15.552C2.612,14.809 2.71,14.214 2.831,13.85L6.234,3.646C6.318,3.395 6.41,3.264 6.503,3.264L25.23,3.186C25.841,3.183 26.427,4.677 26.859,7.339C27.291,10 27.534,13.611 27.534,17.376L27.534,17.394C27.534,25.227 26.504,31.579 25.233,31.584L6.504,31.662C6.407,31.662 6.312,31.523 6.225,31.254L2.823,20.655ZM4.488,17.33L6.65,24.065L25.233,23.988C25.823,23.986 26.302,21.034 26.302,17.394L26.302,17.376C26.302,15.627 26.189,13.949 25.988,12.712C25.787,11.475 25.515,10.781 25.231,10.782L6.646,10.859L4.488,17.33Z"/>
        </g>
        <g transform="matrix(0,-1,1,0,0.795371,31.972586)">
            <path d="M8.707,26.293C9.098,26.683 9.098,27.317 8.707,27.707C8.317,28.098 7.683,28.098 7.293,27.707L4.293,24.707C3.902,24.317 3.902,23.683 4.293,23.293C4.683,22.902 5.317,22.902 5.707,23.293L8.707,26.293Z"/>
        </g>
        <g transform="matrix(-0.976286,-0.976286,0.976286,-0.976286,16.795563,47.221615)">
            <path d="M25.276,14.016C25.276,13.616 25.6,13.292 26,13.292C26.4,13.292 26.724,13.616 26.724,14.016L26.724,18C26.724,18.4 26.4,18.724 26,18.724C25.6,18.724 25.276,18.4 25.276,18L25.276,14.016Z"/>
        </g>
    </g>
    <g id="reroll">
        <g>
            <g transform="matrix(0.875,0,0,0.875,2,2.875)">
                <path d="M20.574,5.857C21.786,5.857 22.948,6.339 23.805,7.195C24.661,8.052 25.143,9.214 25.143,10.426L25.143,19.574C25.143,20.786 24.661,21.948 23.805,22.805C22.948,23.661 21.786,24.143 20.574,24.143L11.426,24.143C10.214,24.143 9.052,23.661 8.195,22.805C7.339,21.948 6.857,20.786 6.857,19.574L6.857,10.426C6.857,9.214 7.339,8.052 8.195,7.195C9.052,6.339 10.214,5.857 11.426,5.857L20.574,5.857ZM20.574,8.143L11.426,8.143C10.821,8.143 10.24,8.383 9.812,8.812C9.383,9.24 9.143,9.821 9.143,10.426L9.143,19.574C9.143,20.179 9.383,20.76 9.812,21.188C10.24,21.617 10.821,21.857 11.426,21.857L20.574,21.857C21.179,21.857 21.76,21.617 22.188,21.188C22.617,20.76 22.857,20.179 22.857,19.574L22.857,10.426C22.857,9.821 22.617,9.24 22.188,8.812C21.76,8.383 21.179,8.143 20.574,8.143Z"/>
            </g>
            <g transform="matrix(1.507176,0,0,1.507176,-8.11481,-8.11481)">
                <circle cx="16" cy="16" r="1"/>
            </g>
            <g transform="matrix(1.5,0,0,1.5,-4.992824,-11.007176)">
                <circle cx="16" cy="16" r="1"/>
            </g>
            <g transform="matrix(1.5,0,0,1.5,-11.007176,-4.992824)">
                <circle cx="16" cy="16" r="1"/>
            </g>
        </g>
        <g>
            <g transform="matrix(0.965926,-0.258819,0.258819,0.965926,-3.595918,4.686292)">
                <path d="M8.386,26.535C8.833,26.859 8.933,27.485 8.609,27.932C8.285,28.379 7.66,28.479 7.213,28.155C3.449,25.428 1,20.998 1,16C1,7.721 7.721,1 16,1C24.279,1 31,7.721 31,16C31,24.279 24.279,31 16,31C15.448,31 15,30.552 15,30C15,29.448 15.448,29 16,29C23.175,29 29,23.175 29,16C29,8.825 23.175,3 16,3C8.825,3 3,8.825 3,16C3,20.332 5.124,24.172 8.386,26.535Z"/>
            </g>
            <path d="M9.05,26.313C8.878,25.789 9.163,25.223 9.687,25.05C10.211,24.878 10.777,25.163 10.95,25.687L11.965,28.768C12.137,29.292 11.852,29.858 11.328,30.031C10.804,30.203 10.238,29.918 10.065,29.394L9.05,26.313Z"/>
            <path d="M7.109,30.517C6.561,30.577 6.066,30.181 6.006,29.632C5.946,29.084 6.342,28.589 6.891,28.529L10.906,28.087C11.454,28.026 11.949,28.423 12.009,28.971C12.069,29.52 11.673,30.014 11.124,30.075L7.109,30.517Z"/>
        </g>
    </g>
    <g id="roll">
        <g transform="matrix(2,0,0,2,-16,-16)">
            <g transform="matrix(0.875,0,0,0.875,2,2.875)">
                <path d="M22.287,6.429C22.893,6.429 23.474,6.669 23.902,7.098C24.331,7.526 24.571,8.107 24.571,8.713L24.571,21.287C24.571,21.893 24.331,22.474 23.902,22.902C23.474,23.331 22.893,23.571 22.287,23.571L9.713,23.571C9.107,23.571 8.526,23.331 8.098,22.902C7.669,22.474 7.429,21.893 7.429,21.287L7.429,8.713C7.429,8.107 7.669,7.526 8.098,7.098C8.526,6.669 9.107,6.429 9.713,6.429L22.287,6.429ZM22.287,7.571L9.713,7.571C9.41,7.571 9.12,7.692 8.906,7.906C8.692,8.12 8.571,8.41 8.571,8.713L8.571,21.287C8.571,21.59 8.692,21.88 8.906,22.094C9.12,22.308 9.41,22.429 9.713,22.429L22.287,22.429C22.59,22.429 22.88,22.308 23.094,22.094C23.308,21.88 23.429,21.59 23.429,21.287L23.429,8.713C23.429,8.41 23.308,8.12 23.094,7.906C22.88,7.692 22.59,7.571 22.287,7.571Z"/>
            </g>
            <g transform="matrix(1.507176,0,0,1.507176,-8.11481,-8.11481)">
                <circle cx="16" cy="16" r="1"/>
            </g>
            <g transform="matrix(1.5,0,0,1.5,-4.992824,-11.007176)">
                <circle cx="16" cy="16" r="1"/>
            </g>
            <g transform="matrix(1.5,0,0,1.5,-11.007176,-4.992824)">
                <circle cx="16" cy="16" r="1"/>
            </g>
        </g>
    </g>
    <g id="back" transform="matrix(0.425101,-0.425101,0.409357,0.409357,1.292152,16.031489)">
        <path d="M11.533,35.023C11.533,35.673 11.157,36.258 10.579,36.507C10.001,36.755 9.336,36.618 8.894,36.159L5.591,32.729C4.957,32.07 4.6,31.176 4.6,30.244L4.6,8.155C4.6,6.247 6.089,4.7 7.927,4.7L29.198,4.7C30.096,4.7 30.957,5.07 31.591,5.729L34.894,9.159C35.336,9.618 35.468,10.309 35.229,10.909C34.989,11.509 34.426,11.9 33.8,11.9L11.533,11.9L11.533,35.023Z"/>
    </g>
    <g id="github" transform="matrix(1.928138,0,0,1.960817,-2.027151,-2.627512)">
        <path d="M9.356,1.85C5.05,1.85 1.57,5.356 1.57,9.694C1.564,13.051 3.714,16.057 6.894,17.134C7.281,17.213 7.422,16.966 7.422,16.758C7.422,16.576 7.409,15.953 7.409,15.304C5.244,15.771 4.793,14.369 4.793,14.369C4.444,13.459 3.929,13.226 3.929,13.226C3.219,12.746 3.98,12.746 3.98,12.746C4.767,12.797 5.18,13.551 5.18,13.551C5.875,14.745 6.997,14.408 7.448,14.2C7.512,13.693 7.718,13.343 7.938,13.148C6.21,12.966 4.393,12.291 4.393,9.278C4.393,8.421 4.703,7.72 5.193,7.174C5.115,6.979 4.844,6.174 5.27,5.096C5.27,5.096 5.927,4.888 7.41,5.901C8.044,5.729 8.699,5.642 9.356,5.641C10.013,5.641 10.684,5.733 11.302,5.901C12.785,4.888 13.442,5.096 13.442,5.096C13.868,6.174 13.597,6.979 13.52,7.174C14.022,7.72 14.319,8.421 14.319,9.278C14.319,12.291 12.501,12.953 10.761,13.148C11.045,13.395 11.289,13.862 11.289,14.602C11.289,15.654 11.277,16.498 11.277,16.758C11.277,16.966 11.419,17.213 11.805,17.135C14.985,16.058 17.136,13.052 17.129,9.694C17.142,5.356 13.649,1.85 9.356,1.85" style="fill:rgb(8,6,13);"/>
    </g>
</svg>
