<?xml version="1.0" encoding="UTF-8" standalone="no"?>
<!DOCTYPE svg PUBLIC "-//W3C//DTD SVG 1.1//EN" "http://www.w3.org/Graphics/SVG/1.1/DTD/svg11.dtd">
<svg width="100%" height="100%" viewBox="0 0 32 32" version="1.1" xmlns="http://www.w3.org/2000/svg" xmlns:xlink="http://www.w3.org/1999/xlink" xml:space="preserve" xmlns:serif="http://www.serif.com/" style="fill-rule:evenodd;clip-rule:evenodd;stroke-linejoin:round;stroke-miterlimit:2;">
    <g id="score" transform="matrix(0.999796,0,0,0.999796,-0.325175,0.492356)">
        <g transform="matrix(-1.07597,-1.07597,0.174566,-0.174566,29.885881,35.139292)">
            <path d="M2.823,20.655C2.702,20.28 2.606,19.676 2.547,18.927C2.463,17.857 2.464,16.614 2.551,15.552C2.612,14.809 2.71,14.214 2.831,13.85L6.234,3.646C6.318,3.395 6.41,3.264 6.503,3.264L25.23,3.186C25.841,3.183 26.427,4.677 26.859,7.339C27.291,10 27.534,13.611 27.534,17.376L27.534,17.394C27.534,25.227 26.504,31.579 25.233,31.584L6.504,31.662C6.407,31.662 6.312,31.523 6.225,31.254L2.823,20.655ZM4.488,17.33L6.65,24.065L25.233,23.988C25.823,23.986 26.302,21.034 26.302,17.394L26.302,17.376C26.302,15.627 26.189,13.949 25.988,12.712C25.787,11.475 25.515,10.781 25.231,10.782L6.646,10.859L4.488,17.33Z"/>
        </g>
        <g transform="matrix(0,-0.937457,0.937457,0,1.770342,30.947895)">
            <path d="M8.707,26.293C9.098,26.683 9.098,27.317 8.707,27.707C8.317,28.098 7.683,28.098 7.293,27.707L4.293,24.707C3.902,24.317 3.902,23.683 4.293,23.293C4.683,22.902 5.317,22.902 5.707,23.293L8.707,26.293Z"/>
        </g>
        <g transform="matrix(-0.915226,-0.915226,0.915226,-0.915226,16.769834,45.243204)">
            <path d="M25.276,14.016C25.276,13.616 25.6,13.292 26,13.292C26.4,13.292 26.724,13.616 26.724,14.016L26.724,18C26.724,18.4 26.4,18.724 26,18.724C25.6,18.724 25.276,18.4 25.276,18L25.276,14.016Z"/>
        </g>
    </g>
    <g id="roll">
        <g transform="matrix(2,0,0,2,-16,-16)">
            <g transform="matrix(0.875,0,0,0.875,2,2.875)">
                <path d="M22.287,6.429C22.893,6.429 23.474,6.669 23.902,7.098C24.331,7.526 24.571,8.107 24.571,8.713L24.571,21.287C24.571,21.893 24.331,22.474 23.902,22.902C23.474,23.331 22.893,23.571 22.287,23.571L9.713,23.571C9.107,23.571 8.526,23.331 8.098,22.902C7.669,22.474 7.429,21.893 7.429,21.287L7.429,8.713C7.429,8.107 7.669,7.526 8.098,7.098C8.526,6.669 9.107,6.429 9.713,6.429L22.287,6.429ZM22.287,7.571L9.713,7.571C9.41,7.571 9.12,7.692 8.906,7.906C8.692,8.12 8.571,8.41 8.571,8.713L8.571,21.287C8.571,21.59 8.692,21.88 8.906,22.094C9.12,22.308 9.41,22.429 9.713,22.429L22.287,22.429C22.59,22.429 22.88,22.308 23.094,22.094C23.308,21.88 23.429,21.59 23.429,21.287L23.429,8.713C23.429,8.41 23.308,8.12 23.094,7.906C22.88,7.692 22.59,7.571 22.287,7.571Z"/>
            </g>
            <g transform="matrix(1.507176,0,0,1.507176,-8.11481,-8.11481)">
                <circle cx="16" cy="16" r="1"/>
            </g>
            <g transform="matrix(1.5,0,0,1.5,-4.992824,-11.007176)">
                <circle cx="16" cy="16" r="1"/>
            </g>
            <g transform="matrix(1.5,0,0,1.5,-11.007176,-4.992824)">
                <circle cx="16" cy="16" r="1"/>
            </g>
        </g>
    </g>
    <g id="back" transform="matrix(0.425101,-0.425101,0.409357,0.409357,1.292152,16.031489)">
        <path d="M11.533,35.023C11.533,35.673 11.157,36.258 10.579,36.507C10.001,36.755 9.336,36.618 8.894,36.159L5.591,32.729C4.957,32.07 4.6,31.176 4.6,30.244L4.6,8.155C4.6,6.247 6.089,4.7 7.927,4.7L29.198,4.7C30.096,4.7 30.957,5.07 31.591,5.729L34.894,9.159C35.336,9.618 35.468,10.309 35.229,10.909C34.989,11.509 34.426,11.9 33.8,11.9L11.533,11.9L11.533,35.023Z"/>
    </g>
    <g id="github" transform="matrix(1.928138,0,0,1.960817,-2.027151,-2.627512)">
        <path d="M9.356,1.85C5.05,1.85 1.57,5.356 1.57,9.694C1.564,13.051 3.714,16.057 6.894,17.134C7.281,17.213 7.422,16.966 7.422,16.758C7.422,16.576 7.409,15.953 7.409,15.304C5.244,15.771 4.793,14.369 4.793,14.369C4.444,13.459 3.929,13.226 3.929,13.226C3.219,12.746 3.98,12.746 3.98,12.746C4.767,12.797 5.18,13.551 5.18,13.551C5.875,14.745 6.997,14.408 7.448,14.2C7.512,13.693 7.718,13.343 7.938,13.148C6.21,12.966 4.393,12.291 4.393,9.278C4.393,8.421 4.703,7.72 5.193,7.174C5.115,6.979 4.844,6.174 5.27,5.096C5.27,5.096 5.927,4.888 7.41,5.901C8.044,5.729 8.699,5.642 9.356,5.641C10.013,5.641 10.684,5.733 11.302,5.901C12.785,4.888 13.442,5.096 13.442,5.096C13.868,6.174 13.597,6.979 13.52,7.174C14.022,7.72 14.319,8.421 14.319,9.278C14.319,12.291 12.501,12.953 10.761,13.148C11.045,13.395 11.289,13.862 11.289,14.602C11.289,15.654 11.277,16.498 11.277,16.758C11.277,16.966 11.419,17.213 11.805,17.135C14.985,16.058 17.136,13.052 17.129,9.694C17.142,5.356 13.649,1.85 9.356,1.85" style="fill:rgb(8,6,13);"/>
    </g>
    <g id="check" transform="matrix(1,0,0,1,0,-1.782748)">
        <path d="M21.771,23.68C22.531,22.855 27.555,15.586 28.413,14.629C28.726,14.28 30.062,12.813 30.572,13.328C31.062,13.813 30.236,15.377 30,15.783C28.508,18.351 23.228,29.052 22.607,29.64C21.285,30.891 19.571,30.306 18.716,28.627C15.922,23.148 13.765,11.996 2.144,6.812C2.064,6.776 1,6.783 1,5.783C1,4.783 3.634,5.477 3.755,5.533C11.375,9.015 16.699,13.773 21.771,23.68Z"/>
    </g>
    <g id="reroll">
        <g>
            <g transform="matrix(0.875,0,0,0.875,2,2.875)">
                <path d="M20.574,5.857C21.786,5.857 22.948,6.339 23.805,7.195C24.661,8.052 25.143,9.214 25.143,10.426L25.143,19.574C25.143,20.786 24.661,21.948 23.805,22.805C22.948,23.661 21.786,24.143 20.574,24.143L11.426,24.143C10.214,24.143 9.052,23.661 8.195,22.805C7.339,21.948 6.857,20.786 6.857,19.574L6.857,10.426C6.857,9.214 7.339,8.052 8.195,7.195C9.052,6.339 10.214,5.857 11.426,5.857L20.574,5.857ZM20.574,8.143L11.426,8.143C10.821,8.143 10.24,8.383 9.812,8.812C9.383,9.24 9.143,9.821 9.143,10.426L9.143,19.574C9.143,20.179 9.383,20.76 9.812,21.188C10.24,21.617 10.821,21.857 11.426,21.857L20.574,21.857C21.179,21.857 21.76,21.617 22.188,21.188C22.617,20.76 22.857,20.179 22.857,19.574L22.857,10.426C22.857,9.821 22.617,9.24 22.188,8.812C21.76,8.383 21.179,8.143 20.574,8.143Z"/>
            </g>
            <g transform="matrix(1.507176,0,0,1.507176,-8.11481,-8.11481)">
                <circle cx="16" cy="16" r="1"/>
            </g>
            <g transform="matrix(1.5,0,0,1.5,-4.992824,-11.007176)">
                <circle cx="16" cy="16" r="1"/>
            </g>
            <g transform="matrix(1.5,0,0,1.5,-11.007176,-4.992824)">
                <circle cx="16" cy="16" r="1"/>
            </g>
        </g>
        <g>
            <g transform="matrix(0.965926,-0.258819,0.258819,0.965926,-3.595918,4.686292)">
                <path d="M8.386,26.535C8.833,26.859 8.933,27.485 8.609,27.932C8.285,28.379 7.66,28.479 7.213,28.155C3.449,25.428 1,20.998 1,16C1,7.721 7.721,1 16,1C24.279,1 31,7.721 31,16C31,24.279 24.279,31 16,31C15.448,31 15,30.552 15,30C15,29.448 15.448,29 16,29C23.175,29 29,23.175 29,16C29,8.825 23.175,3 16,3C8.825,3 3,8.825 3,16C3,20.332 5.124,24.172 8.386,26.535Z"/>
            </g>
            <path d="M9.05,26.313C8.878,25.789 9.163,25.223 9.687,25.05C10.211,24.878 10.777,25.163 10.95,25.687L11.965,28.768C12.137,29.292 11.852,29.858 11.328,30.031C10.804,30.203 10.238,29.918 10.065,29.394L9.05,26.313Z"/>
            <path d="M7.109,30.517C6.561,30.577 6.066,30.181 6.006,29.632C5.946,29.084 6.342,28.589 6.891,28.529L10.906,28.087C11.454,28.026 11.949,28.423 12.009,28.971C12.069,29.52 11.673,30.014 11.124,30.075L7.109,30.517Z"/>
        </g>
    </g>
    <g id="restart" transform="matrix(0.985593,-0.169134,0.169134,0.985593,-2.394981,2.940358)">
        <path d="M27.427,5.742C29.692,8.37 31.062,11.791 31.062,15.528C31.062,23.807 24.341,30.528 16.062,30.528C7.783,30.528 1.062,23.807 1.062,15.528C1.062,7.25 7.783,0.528 16.062,0.528C16.614,0.528 17.062,0.977 17.062,1.528C17.062,2.08 16.614,2.528 16.062,2.528C8.887,2.528 3.062,8.354 3.062,15.528C3.062,22.703 8.887,28.528 16.062,28.528C23.237,28.528 29.062,22.703 29.062,15.528C29.062,11.912 27.582,8.638 25.194,6.28L25.175,8.369C25.169,9.06 24.707,9.683 24.143,9.76C23.58,9.837 23.128,9.339 23.134,8.648L23.171,4.59C23.172,4.398 23.209,4.212 23.273,4.041L23.275,4.032C23.285,3.963 23.302,3.896 23.327,3.831C23.358,3.75 23.399,3.671 23.453,3.597C23.7,3.256 24.122,3.117 24.507,3.214L24.53,3.22L24.582,3.236L29.089,3.99C29.71,4.094 30.154,4.623 30.079,5.171C30.004,5.719 29.438,6.079 28.816,5.975L27.427,5.742Z"/>
    </g>
    <g id="leaderboard" transform="matrix(-0.362093,-0.597426,0.627164,-0.344924,5.4791,43.867107)">
        <path d="M13.852,24.808C13.47,24.292 12.481,22.812 12.439,21.277C12.438,21.208 12.438,21.138 12.439,21.069L12.438,20.939C12.454,18.959 14.002,17 14.002,17C14.002,17 15.512,18.819 15.563,20.723C15.565,20.792 15.565,20.862 15.563,20.931L15.564,21.061C15.55,22.814 14.334,24.551 14.056,24.926C13.871,25.354 12.974,27.276 11.463,28.164L11.35,28.228C11.291,28.265 11.231,28.299 11.17,28.332C9.496,29.24 7.165,28.842 7.165,28.842C7.165,28.842 8.088,26.522 9.794,25.518L9.907,25.454C9.967,25.418 10.027,25.383 10.088,25.35C11.438,24.618 13.214,24.735 13.852,24.808ZM14.292,24.918C14.807,24.475 16.285,23.322 17.871,23.158L18.001,23.146C18.07,23.138 18.139,23.131 18.208,23.127C20.108,22.996 22.063,24.325 22.063,24.325C22.063,24.325 20.26,26.053 18.291,26.258L18.161,26.269C18.092,26.277 18.023,26.284 17.954,26.289C17.202,26.34 16.441,26.163 15.796,25.931C16.32,26.372 16.854,26.943 17.185,27.62C17.216,27.682 17.245,27.745 17.272,27.809L17.327,27.927C18.134,29.735 17.539,32.16 17.539,32.16C17.539,32.16 15.411,31.131 14.574,29.421C14.543,29.359 14.515,29.296 14.487,29.232L14.432,29.114C13.782,27.658 14.041,25.802 14.167,25.134L14.099,25.09L14.193,25.005L14.22,24.881L14.292,24.918ZM17.844,13.5L17.936,13.389C19.365,11.726 22.077,11.176 22.077,11.176C22.077,11.176 22.052,13.795 20.734,15.442C20.685,15.502 20.636,15.561 20.585,15.618L20.492,15.729C19.063,17.392 16.352,17.942 16.352,17.942C16.352,17.942 16.376,15.323 17.695,13.676C17.743,13.616 17.792,13.558 17.844,13.5ZM18.964,21.992C18.899,21.95 18.836,21.906 18.774,21.86C17.074,20.612 16.371,18.089 16.371,18.089C16.371,18.089 19.132,17.917 20.944,19.152L21.062,19.236C21.126,19.278 21.189,19.322 21.251,19.367C22.951,20.616 23.654,23.139 23.654,23.139C23.654,23.139 20.893,23.311 19.081,22.075L18.964,21.992ZM23.932,11.568L24.047,11.494C25.801,10.385 28.406,10.64 28.406,10.64C28.406,10.64 27.658,13.002 26.009,14.126C25.948,14.167 25.887,14.206 25.825,14.244L25.711,14.319C23.957,15.427 21.352,15.173 21.352,15.173C21.352,15.173 22.1,12.811 23.749,11.687C23.809,11.646 23.87,11.606 23.932,11.568ZM22.592,19.561C22.546,19.505 22.501,19.448 22.457,19.389C21.265,17.789 21.328,15.312 21.328,15.312C21.328,15.312 23.874,15.921 25.17,17.541L25.254,17.649C25.3,17.705 25.345,17.762 25.389,17.821C26.581,19.421 26.518,21.898 26.518,21.898C26.518,21.898 23.972,21.289 22.676,19.669L22.592,19.561ZM42.031,17.068L42.168,17.098C44.24,17.584 45.929,19.672 45.929,19.672C45.929,19.672 43.663,20.824 41.654,20.427C41.581,20.412 41.508,20.396 41.435,20.377L41.299,20.348C39.226,19.862 37.538,17.774 37.538,17.774C37.538,17.774 39.804,16.622 41.813,17.019C41.886,17.034 41.959,17.05 42.031,17.068ZM35.221,21.837C35.229,21.763 35.238,21.689 35.25,21.615C35.563,19.592 37.42,17.856 37.42,17.856C37.42,17.856 38.806,20.157 38.553,22.27L38.534,22.409C38.527,22.483 38.517,22.557 38.506,22.631C38.193,24.655 36.335,26.39 36.335,26.39C36.335,26.39 34.95,24.089 35.202,21.976L35.221,21.837ZM36.292,13.75L36.429,13.741C38.512,13.633 40.67,15.138 40.67,15.138C40.67,15.138 38.851,16.84 36.853,17.014C36.78,17.02 36.707,17.025 36.633,17.027L36.497,17.037C34.414,17.145 32.255,15.639 32.255,15.639C32.255,15.639 34.074,13.937 36.073,13.764C36.146,13.757 36.219,13.753 36.292,13.75ZM31.183,20.096C31.169,20.024 31.158,19.951 31.149,19.879C30.892,17.889 32.167,15.749 32.167,15.749C32.167,15.749 34.098,17.537 34.437,19.595L34.457,19.73C34.47,19.803 34.481,19.875 34.491,19.947C34.747,21.937 33.473,24.077 33.473,24.077C33.473,24.077 31.541,22.29 31.203,20.232L31.183,20.096ZM30.546,11.747L30.673,11.709C32.622,11.159 34.988,12.119 34.988,12.119C34.988,12.119 33.633,14.122 31.778,14.716C31.711,14.738 31.643,14.757 31.574,14.776L31.446,14.814C29.498,15.364 27.131,14.404 27.131,14.404C27.131,14.404 28.486,12.401 30.341,11.807C30.409,11.785 30.477,11.765 30.546,11.747ZM27.074,18.853C27.046,18.788 27.02,18.721 26.995,18.655C26.324,16.826 27.071,14.527 27.071,14.527C27.071,14.527 29.283,15.803 30.047,17.678L30.095,17.803C30.123,17.868 30.149,17.934 30.174,18.001C30.845,19.829 30.098,22.129 30.098,22.129C30.098,22.129 27.886,20.852 27.122,18.977L27.074,18.853ZM45.785,21.645L45.897,21.708C47.591,22.696 48.53,24.964 48.53,24.964C48.53,24.964 46.238,25.338 44.577,24.443C44.516,24.411 44.456,24.376 44.397,24.341L44.285,24.278C42.591,23.289 41.652,21.021 41.652,21.021C41.652,21.021 43.944,20.647 45.605,21.542C45.666,21.575 45.726,21.609 45.785,21.645ZM38.555,23.897C38.581,23.835 38.609,23.773 38.638,23.713C39.442,22.05 41.527,21.06 41.527,21.06C41.527,21.06 42.144,23.428 41.371,25.185L41.318,25.3C41.292,25.362 41.264,25.424 41.235,25.484C40.431,27.147 38.346,28.137 38.346,28.137C38.346,28.137 37.729,25.769 38.503,24.012L38.555,23.897ZM48.186,26.938L48.281,27.025C49.7,28.38 50.087,30.803 50.087,30.803C50.087,30.803 47.771,30.635 46.362,29.38C46.311,29.334 46.261,29.287 46.211,29.239L46.117,29.151C44.698,27.797 44.311,25.373 44.311,25.373C44.311,25.373 46.627,25.541 48.035,26.797C48.087,26.842 48.137,26.889 48.186,26.938ZM40.632,27.453C40.671,27.399 40.713,27.345 40.755,27.293C41.922,25.862 44.18,25.382 44.18,25.382C44.18,25.382 44.231,27.829 43.071,29.359L42.993,29.458C42.954,29.513 42.912,29.566 42.87,29.618C41.703,31.049 39.445,31.529 39.445,31.529C39.445,31.529 39.394,29.082 40.554,27.552L40.632,27.453ZM48.416,32.151L48.471,32.23C49.287,33.453 49.174,35.29 49.174,35.29C49.174,35.29 47.507,34.788 46.682,33.639L46.594,33.511L46.539,33.432C45.723,32.209 45.836,30.372 45.836,30.372C45.836,30.372 47.503,30.874 48.329,32.023L48.416,32.151ZM42.804,31.291L42.92,31.195C44.008,30.338 45.739,30.357 45.739,30.357C45.739,30.357 45.376,32.155 44.277,33.085L44.204,33.145L44.087,33.242C42.999,34.098 41.269,34.08 41.269,34.08C41.269,34.08 41.632,32.281 42.73,31.351L42.804,31.291ZM43.805,34.944L43.843,34.797C44.223,33.466 45.637,32.467 45.637,32.467C45.637,32.467 46.396,34.138 46.05,35.535L46.025,35.626L45.988,35.773C45.607,37.104 44.194,38.103 44.194,38.103C44.194,38.103 43.435,36.433 43.781,35.036L43.805,34.944ZM6.055,33.919C6.079,33.846 6.105,33.773 6.133,33.702C6.9,31.737 9.156,30.406 9.156,30.406C9.156,30.406 10.035,33.029 9.31,35.098L9.26,35.233C9.235,35.307 9.209,35.379 9.181,35.451C8.415,37.416 6.159,38.746 6.159,38.746C6.159,38.746 5.279,36.124 6.005,34.054L6.055,33.919ZM13.969,30.643L14.1,30.703C16.076,31.654 17.307,34.132 17.307,34.132C17.307,34.132 14.771,34.784 12.84,33.936C12.77,33.905 12.7,33.872 12.631,33.838L12.5,33.778C10.524,32.826 9.293,30.349 9.293,30.349C9.293,30.349 11.829,29.696 13.76,30.545C13.831,30.575 13.9,30.608 13.969,30.643ZM7.426,40.158C7.428,40.085 7.432,40.012 7.437,39.94C7.586,37.949 9.258,36.12 9.258,36.12C9.258,36.12 10.78,38.249 10.698,40.322L10.69,40.459C10.688,40.532 10.685,40.604 10.679,40.677C10.53,42.667 8.859,44.496 8.859,44.496C8.859,44.496 7.336,42.367 7.419,40.294L7.426,40.158ZM13.678,35.001L13.813,35.019C15.864,35.332 17.665,37.232 17.665,37.232C17.665,37.232 15.552,38.525 13.569,38.293C13.497,38.284 13.425,38.274 13.353,38.262L13.218,38.244C11.167,37.931 9.366,36.031 9.366,36.031C9.366,36.031 11.479,34.738 13.462,34.97C13.534,34.978 13.606,34.988 13.678,35.001ZM21.239,53.082C21.187,53.028 21.136,52.973 21.087,52.917C19.738,51.376 19.603,48.838 19.603,48.838C19.603,48.838 22.256,49.256 23.713,50.808L23.807,50.911C23.859,50.965 23.909,51.02 23.959,51.076C25.307,52.617 25.442,55.155 25.442,55.155C25.442,55.155 22.79,54.737 21.333,53.186L21.239,53.082ZM21.964,44.8L22.075,44.714C23.779,43.439 26.464,43.488 26.464,43.488C26.464,43.488 25.889,45.964 24.294,47.247C24.236,47.294 24.176,47.339 24.115,47.383L24.005,47.469C22.301,48.744 19.616,48.695 19.616,48.695C19.616,48.695 20.19,46.218 21.786,44.935C21.844,44.889 21.903,44.843 21.964,44.8ZM15.496,49.77C15.461,49.706 15.429,49.64 15.398,49.574C14.549,47.756 15.113,45.33 15.113,45.33C15.113,45.33 17.496,46.447 18.444,48.304L18.504,48.428C18.539,48.492 18.572,48.558 18.603,48.624C19.452,50.442 18.887,52.868 18.887,52.868C18.887,52.868 16.504,51.751 15.556,49.894L15.496,49.77ZM18.437,42.173L18.564,42.122C20.516,41.387 23.029,42.165 23.029,42.165C23.029,42.165 21.814,44.339 19.962,45.112C19.894,45.14 19.826,45.166 19.757,45.191L19.63,45.242C17.678,45.977 15.164,45.199 15.164,45.199C15.164,45.199 16.38,43.024 18.232,42.252C18.299,42.224 18.367,42.197 18.437,42.173ZM10.888,45.796C10.869,45.727 10.852,45.658 10.837,45.589C10.424,43.685 11.481,41.51 11.481,41.51C11.481,41.51 13.496,43.08 13.994,45.042L14.025,45.172C14.043,45.24 14.06,45.309 14.075,45.379C14.488,47.282 13.431,49.457 13.431,49.457C13.431,49.457 11.416,47.888 10.918,45.925L10.888,45.796ZM15.306,39.236L15.437,39.216C17.443,38.939 19.655,40.217 19.655,40.217C19.655,40.217 18.036,42.014 16.118,42.347C16.048,42.359 15.977,42.369 15.907,42.378L15.775,42.398C13.769,42.674 11.558,41.397 11.558,41.397C11.558,41.397 13.176,39.6 15.095,39.267C15.165,39.255 15.235,39.245 15.306,39.236ZM27.079,54.044C27.018,54.011 26.959,53.976 26.9,53.94C25.295,52.949 24.473,50.777 24.473,50.777C24.473,50.777 26.906,50.456 28.609,51.429L28.72,51.495C28.78,51.528 28.84,51.563 28.898,51.599C30.504,52.59 31.326,54.762 31.326,54.762C31.326,54.762 28.893,55.083 27.19,54.11L27.079,54.044ZM25.415,46.657L25.488,46.554C26.623,45.006 28.982,44.356 28.982,44.356C28.982,44.356 29.167,46.657 28.129,48.184C28.091,48.24 28.052,48.294 28.011,48.348L27.938,48.451C26.803,49.999 24.444,50.649 24.444,50.649C24.444,50.649 24.259,48.348 25.297,46.821C25.335,46.766 25.374,46.711 25.415,46.657ZM32.864,53.477C32.797,53.459 32.731,53.439 32.666,53.418C30.874,52.825 29.571,50.903 29.571,50.903C29.571,50.903 31.863,50.027 33.746,50.578L33.869,50.617C33.935,50.635 34.001,50.655 34.067,50.677C35.858,51.269 37.161,53.191 37.161,53.191C37.161,53.191 34.869,54.067 32.987,53.516L32.864,53.477ZM29.532,46.677L29.579,46.56C30.325,44.791 32.469,43.612 32.469,43.612C32.469,43.612 33.182,45.807 32.527,47.533C32.503,47.596 32.477,47.658 32.45,47.72L32.403,47.837C31.658,49.607 29.513,50.786 29.513,50.786C29.513,50.786 28.8,48.59 29.456,46.864C29.479,46.801 29.505,46.739 29.532,46.677ZM37.493,51.07L37.338,51.058C35.931,50.918 34.663,49.725 34.663,49.725C34.663,49.725 36.196,48.709 37.664,48.804L37.76,48.812L37.915,48.824C39.323,48.964 40.591,50.157 40.591,50.157C40.591,50.157 39.057,51.173 37.589,51.078L37.493,51.07ZM33.943,46.639L33.958,46.546C34.214,45.129 35.59,43.916 35.59,43.916C35.59,43.916 36.471,45.405 36.274,46.775L36.248,46.925L36.233,47.018C35.977,48.435 34.601,49.648 34.601,49.648C34.601,49.648 33.72,48.159 33.917,46.789L33.943,46.639ZM37.606,45.68L37.674,45.613C38.711,44.615 40.537,44.437 40.537,44.437C40.537,44.437 40.379,46.161 39.416,47.156L39.308,47.262L39.241,47.329C38.204,48.327 36.378,48.505 36.378,48.505C36.378,48.505 36.536,46.781 37.498,45.786L37.606,45.68ZM24.178,32.669L22.768,35.111C22.35,35.835 21.394,36.066 20.634,35.628C19.875,35.189 19.597,34.246 20.015,33.522L24.297,26.106C24.714,25.382 25.67,25.151 26.43,25.589C27.19,26.028 27.467,26.972 27.049,27.695L25.692,30.047L34.391,35.07L33.655,32.424C33.426,31.6 33.919,30.776 34.755,30.587C35.591,30.398 36.456,30.914 36.685,31.738L38.403,37.917C38.57,38.517 38.357,39.142 37.861,39.502C37.366,39.863 36.685,39.89 36.132,39.571L24.178,32.669Z"/>
    </g>
    <g id="home" transform="matrix(0.7,0,0,0.726022,4.1,8.119331)">
        <path d="M0.571,5.02L-2.15,6.964C-2.783,7.416 -3.679,7.288 -4.148,6.677C-4.617,6.066 -4.484,5.203 -3.85,4.75L16.15,-9.535C16.655,-9.896 17.345,-9.896 17.85,-9.535L37.85,4.75C38.484,5.203 38.617,6.066 38.148,6.677C37.679,7.288 36.783,7.416 36.15,6.964L33.429,5.02L33.429,30C33.429,30.761 32.789,31.377 32,31.377L21.504,31.377C21.468,31.377 21.431,31.376 21.395,31.373C21.359,31.376 21.322,31.377 21.286,31.377C20.497,31.377 19.857,30.76 19.857,30L19.857,19.119L14.143,19.119L14.143,30C14.143,30.76 13.503,31.377 12.714,31.377C12.682,31.377 12.65,31.376 12.618,31.374C12.586,31.376 12.554,31.377 12.522,31.377L2,31.377C1.211,31.377 0.571,30.761 0.571,30L0.571,5.02ZM30.572,2.98L17,-6.714L3.428,2.98C3.429,2.986 3.429,2.993 3.429,3L3.429,28.623L11.286,28.623L11.286,17.741C11.286,16.981 11.925,16.364 12.714,16.364L21.286,16.364C22.075,16.364 22.714,16.981 22.714,17.741L22.714,28.623L30.571,28.623L30.571,3C30.571,2.993 30.571,2.986 30.572,2.98ZM27,5.345L27,12.232C27,12.993 26.36,13.609 25.571,13.609L19.857,13.609C19.068,13.609 18.429,12.993 18.429,12.232L18.429,5.345C18.429,4.584 19.068,3.968 19.857,3.968L25.571,3.968C26.36,3.968 27,4.584 27,5.345ZM24.143,6.722L21.286,6.722L21.286,10.855L24.143,10.855L24.143,6.722ZM15.571,5.345L15.571,12.232C15.571,12.993 14.932,13.609 14.143,13.609L8.429,13.609C7.64,13.609 7,12.993 7,12.232L7,5.345C7,4.584 7.64,3.968 8.429,3.968L14.143,3.968C14.932,3.968 15.571,4.584 15.571,5.345ZM12.714,6.722L9.857,6.722L9.857,10.855L12.714,10.855L12.714,6.722Z"/>
    </g>
</svg>
