<?xml version="1.0" encoding="UTF-8" standalone="no"?>
<!DOCTYPE svg PUBLIC "-//W3C//DTD SVG 1.1//EN" "http://www.w3.org/Graphics/SVG/1.1/DTD/svg11.dtd">
<svg width="100%" height="100%" viewBox="0 0 400 400" version="1.1" xmlns="http://www.w3.org/2000/svg" xmlns:xlink="http://www.w3.org/1999/xlink" xml:space="preserve" xmlns:serif="http://www.serif.com/" style="fill-rule:evenodd;clip-rule:evenodd;stroke-linejoin:round;stroke-miterlimit:2;">
    <g transform="matrix(1.015359,0,0,1.015359,-3.071709,-3.097342)">
        <path d="M195.5,200L361.847,87.715C369.571,98.822 376.182,110.761 381.517,123.369L195.5,200ZM195.5,200L6.689,238.103C4.268,225.774 3,213.034 3,200L195.5,200ZM195.5,200L156.709,7.78C169.232,4.968 182.205,3.349 195.5,3.05L195.5,200ZM195.5,200L6.416,163.313C8.865,150.332 12.59,137.798 17.454,125.849L195.5,200ZM195.5,200L34.54,93.096C41.542,82.288 49.573,72.208 58.495,62.995L195.5,200ZM195.5,200L305.845,33.859C317.054,41.02 327.492,49.283 337.005,58.495L195.5,200ZM195.5,200L86.722,38.848C97.45,31.289 108.966,24.774 121.121,19.451L195.5,200ZM195.5,200L233.182,5.788C246.597,8.067 259.552,11.705 271.9,16.554L195.5,200ZM195.5,200L393.259,238.37C390.581,251.91 386.514,264.953 381.213,277.344L195.5,200ZM195.5,200L392.96,160.152C395.609,173.023 397,186.35 397,200L195.5,200ZM195.5,200L362.7,311.049C355.17,322.054 346.553,332.257 337.005,341.505L195.5,200ZM195.5,200L234.641,393.959C223.394,395.957 211.818,397 200,397C198.496,397 196.996,396.983 195.5,396.95L195.5,200ZM195.5,200L35.331,308.115C28.188,297.263 22.088,285.664 17.175,273.462L195.5,200ZM195.5,200L307.1,365.332C295.866,372.629 283.842,378.812 271.187,383.725L195.5,200ZM195.5,200L158.143,392.536C145.041,389.697 132.423,385.552 120.433,380.246L195.5,200ZM195.5,200L87.915,361.986C77.305,354.627 67.451,346.253 58.495,337.005L195.5,200Z" style="fill:white;"/>
    </g>
</svg>
