<?xml version="1.0" encoding="UTF-8" standalone="no"?>
<!DOCTYPE svg PUBLIC "-//W3C//DTD SVG 1.1//EN" "http://www.w3.org/Graphics/SVG/1.1/DTD/svg11.dtd">
<svg width="100%" height="100%" viewBox="0 0 800 800" version="1.1" xmlns="http://www.w3.org/2000/svg" xmlns:xlink="http://www.w3.org/1999/xlink" xml:space="preserve" xmlns:serif="http://www.serif.com/" style="fill-rule:evenodd;clip-rule:evenodd;stroke-linejoin:round;stroke-miterlimit:2;">
    <g id="bronze" transform="matrix(1,0,0,1,113,123)">
        <g transform="matrix(1,0,0,1,-113,-123)">
            <g transform="matrix(1.5625,0,0,1.5625,0,0)">
                <path d="M212.666,194.207C151.063,194.207 99.002,150.103 88.877,89.328L88.592,87.639C87.48,80.966 89.221,74.51 93.497,69.466C97.627,64.587 103.675,61.794 110.093,61.794L163.257,61.794L163.257,35.31L110.093,35.31C95.877,35.31 82.464,41.517 73.291,52.345C64.036,63.276 60.093,77.724 62.472,92.008L62.757,93.689C75.016,167.285 138.06,220.689 212.663,220.689L212.685,220.689L212.685,194.206C212.675,194.207 212.675,194.207 212.666,194.207Z" style="fill:rgb(255,161,81);fill-rule:nonzero;"/>
            </g>
            <g transform="matrix(1.5625,0,0,1.5625,0,0)">
                <path d="M438.71,52.345C429.537,41.517 416.124,35.31 401.908,35.31L348.744,35.31L348.744,61.793L401.908,61.793C408.326,61.793 414.374,64.586 418.503,69.465C422.779,74.508 424.52,80.965 423.408,87.638L423.123,89.327C412.999,150.103 360.938,194.206 299.335,194.206L299.317,194.206L299.317,220.689L299.335,220.689C373.942,220.689 436.986,167.284 449.244,93.689L449.529,92.008C451.909,77.725 447.964,63.276 438.71,52.345Z" style="fill:rgb(255,154,81);fill-rule:nonzero;"/>
                <path d="M282.483,414.897L229.518,414.897L238.345,229.517L273.656,229.517L282.483,414.897Z" style="fill:rgb(255,154,81);fill-rule:nonzero;"/>
            </g>
            <g transform="matrix(1.5625,0,0,1.5625,0,0)">
                <path d="M238.345,229.517L229.518,414.897L256,414.897L256,229.517L238.345,229.517Z" style="fill:rgb(255,165,81);fill-rule:nonzero;"/>
            </g>
            <g transform="matrix(1.5625,0,0,1.5625,0,0)">
                <path d="M308.967,450.207L203.035,450.207L203.035,414.897C203.035,410.022 206.988,406.069 211.863,406.069L300.139,406.069C305.014,406.069 308.967,410.022 308.967,414.897L308.967,450.207Z" style="fill:rgb(255,173,98);fill-rule:nonzero;"/>
            </g>
            <g transform="matrix(1.5625,0,0,1.5625,0,0)">
                <path d="M256,406.069L211.862,406.069C206.987,406.069 203.034,410.022 203.034,414.897L203.034,450.207L247.172,450.207L247.172,414.897C247.173,410.022 251.125,406.069 256,406.069Z" style="fill:rgb(251,153,85);fill-rule:nonzero;"/>
            </g>
            <g transform="matrix(1.5625,0,0,1.5625,0,0)">
                <path d="M344.276,467.862L167.724,467.862L180.138,449.241C183.412,444.33 188.925,441.379 194.828,441.379L317.172,441.379C323.075,441.379 328.587,444.33 331.862,449.241L344.276,467.862Z" style="fill:rgb(179,95,82);fill-rule:nonzero;"/>
            </g>
            <g transform="matrix(1.5625,0,0,1.5625,0,0)">
                <path d="M247.794,441.379L194.828,441.379C188.925,441.379 183.413,444.329 180.138,449.241L167.724,467.862L220.69,467.862L233.104,449.241C236.379,444.329 241.891,441.379 247.794,441.379Z" style="fill:rgb(151,61,54);fill-rule:nonzero;"/>
            </g>
            <g transform="matrix(1.5625,0,0,1.5625,0,0)">
                <path d="M344.276,512L167.724,512C162.849,512 158.896,508.047 158.896,503.172L158.896,467.862C158.896,462.987 162.849,459.034 167.724,459.034L344.276,459.034C349.151,459.034 353.104,462.987 353.104,467.862L353.104,503.172C353.104,508.047 349.151,512 344.276,512Z" style="fill:rgb(153,70,53);fill-rule:nonzero;"/>
            </g>
            <g transform="matrix(1.5625,0,0,1.5625,0,0)">
                <path d="M220.69,503.172L220.69,467.862C220.69,462.987 224.643,459.034 229.518,459.034L167.725,459.034C162.85,459.034 158.897,462.987 158.897,467.862L158.897,503.172C158.897,508.047 162.85,512 167.725,512L229.518,512C224.643,512 220.69,508.047 220.69,503.172Z" style="fill:rgb(127,50,38);fill-rule:nonzero;"/>
            </g>
            <g transform="matrix(1.5625,0,0,1.5625,0,0)">
                <path d="M326.339,204.235L287.266,234.625C284.166,237.035 280.353,238.344 276.427,238.344L235.576,238.344C231.65,238.344 227.835,237.035 224.737,234.625L185.664,204.235C162.923,186.547 148.366,160.36 145.351,131.708L132.414,8.828L379.586,8.828L366.651,131.708C363.636,160.36 349.079,186.548 326.339,204.235Z" style="fill:rgb(255,173,98);fill-rule:nonzero;"/>
            </g>
            <g transform="matrix(1.5625,0,0,1.5625,0,0)">
                <path d="M254.726,234.625L236.585,204.235C226.026,186.547 219.269,160.36 217.868,131.706L211.862,8.828L132.414,8.828L145.349,131.708C148.365,160.36 162.921,186.548 185.662,204.237L224.735,234.627C227.835,237.038 231.648,238.347 235.574,238.347L259.757,238.347C257.936,238.345 256.165,237.036 254.726,234.625Z" style="fill:rgb(251,151,85);fill-rule:nonzero;"/>
            </g>
            <g transform="matrix(1.5625,0,0,1.5625,0,0)">
                <path d="M379.587,17.655L132.414,17.655C127.539,17.655 123.586,13.702 123.586,8.827C123.586,3.952 127.539,-0.001 132.414,-0.001L379.586,-0.001C384.461,-0.001 388.414,3.952 388.414,8.827C388.414,13.703 384.462,17.655 379.587,17.655Z" style="fill:rgb(255,173,98);fill-rule:nonzero;"/>
                <path d="M282.483,300.138L229.517,300.138C224.642,300.138 220.689,296.185 220.689,291.31L220.689,282.482C220.689,277.607 224.642,273.654 229.517,273.654L282.483,273.654C287.358,273.654 291.311,277.607 291.311,282.482L291.311,291.31C291.311,296.185 287.358,300.138 282.483,300.138Z" style="fill:rgb(255,173,98);fill-rule:nonzero;"/>
            </g>
            <g transform="matrix(1.5625,0,0,1.5625,0,0)">
                <path d="M247.173,291.31L247.173,282.482C247.173,277.607 251.126,273.654 256.001,273.654L229.518,273.654C224.643,273.654 220.69,277.607 220.69,282.482L220.69,291.31C220.69,296.185 224.643,300.138 229.518,300.138L256,300.138C251.125,300.138 247.173,296.185 247.173,291.31Z" style="fill:rgb(251,151,85);fill-rule:nonzero;"/>
                <path d="M376.799,35.31L378.657,17.655L133.343,17.655L135.201,35.31L376.799,35.31Z" style="fill:rgb(255,153,67);fill-rule:nonzero;"/>
            </g>
            <g transform="matrix(1.5625,0,0,1.5625,0,0)">
                <path d="M212.294,17.655L133.343,17.655L135.201,35.31L213.157,35.31L212.294,17.655Z" style="fill:rgb(255,138,51);fill-rule:nonzero;"/>
            </g>
            <g transform="matrix(1.5625,0,0,1.5625,0,0)">
                <path d="M203.035,8.828C203.035,3.953 206.988,0 211.863,0L132.415,0C127.54,0 123.587,3.953 123.587,8.828C123.587,13.703 127.54,17.656 132.415,17.656L211.863,17.656C206.987,17.655 203.035,13.703 203.035,8.828Z" style="fill:rgb(251,151,85);fill-rule:nonzero;"/>
            </g>
            <g transform="matrix(1.5625,0,0,1.5625,0,0)">
                <g transform="matrix(1,0,0,1,16.83125,-17.368)">
                    <path d="M361.475,44.658C348.302,41.654 337.932,31.285 334.929,18.112C334.703,17.12 333.39,17.12 333.163,18.112C330.159,31.285 319.79,41.655 306.617,44.658C305.625,44.884 305.625,46.197 306.617,46.424C319.79,49.428 330.16,59.797 333.163,72.97C333.389,73.962 334.702,73.962 334.929,72.97C337.933,59.797 348.302,49.427 361.475,46.424C362.467,46.198 362.467,44.884 361.475,44.658Z" style="fill:white;fill-rule:nonzero;"/>
                </g>
                <g transform="matrix(1,0,0,1,16.83125,-17.368)">
                    <path d="M322.83,84.564C313.556,82.162 306.253,74.859 303.851,65.585C303.609,64.654 302.404,64.654 302.163,65.585C299.761,74.859 292.458,82.162 283.184,84.564C282.253,84.806 282.253,86.011 283.184,86.252C292.458,88.654 299.761,95.956 302.163,105.231C302.405,106.162 303.61,106.162 303.851,105.231C306.253,95.955 313.556,88.654 322.83,86.252C323.761,86.012 323.761,84.806 322.83,84.564Z" style="fill:white;fill-rule:nonzero;"/>
                </g>
            </g>
            <g transform="matrix(0.431417,0,0,0.431417,272.72846,113.287802)">
                <path d="M83.331,155.187C87.083,146.677 94.321,126.662 120.65,116.934C128.541,114.018 130.809,114.692 129.992,116.593C93.487,201.501 76.342,193.144 76.592,205.499C77.228,236.904 80.338,248.231 80.552,240.523C80.573,239.755 77.704,216.354 94.918,195.861C99.325,190.614 107.781,183.357 107.898,186.314C110.283,246.621 96.222,277.449 92.918,284.692C90.877,289.167 121.165,341.626 109.807,316.427C95.569,284.838 113.854,256.789 115.244,259.735C140.994,314.289 140.952,347.57 140.942,355.503C140.935,361.111 192.745,396.861 167.965,376.168C146.4,358.16 146.791,320.229 151.29,323.872C158.425,329.647 181.632,353.173 184.208,355.784C205.129,376.992 214.785,400.167 216.422,400.693C229.838,405.011 231.949,403.312 250.566,410.209C273.588,418.739 236.167,402.566 226.707,394.233C209.948,379.469 207.504,365.573 210.518,366.357C295.923,388.582 290.226,418.952 295.61,417.696C296.755,417.428 305.679,389.599 350.46,375.365C379.589,366.105 381.451,364.943 381.396,367.496C381.381,368.202 375.796,386.849 358.251,398.108C348.414,404.42 318.043,417.868 343.552,408.726C354.815,404.689 374.01,401.995 375.378,399.422C395.326,361.911 398.069,363.779 438.415,324.369C443.316,319.582 444.5,357.068 422.098,376.181C398.997,395.889 449.082,361.113 449.134,355.5C449.43,323.813 453.597,311.959 473.756,262.605C474.891,259.826 475.714,258.186 477.151,260.74C498.357,298.455 473.473,322.743 479.538,321.65C480.106,321.548 498.865,288.2 497.188,284.641C478.803,245.605 483.916,212.481 482.102,187.466C481.593,180.443 503.701,198.827 508.568,223.488C509.527,228.35 510.542,252.625 511.582,239.523C514.562,201.966 513.697,201.35 510.883,199.044C490.774,182.562 475.038,150.385 460.105,116.584C457.909,111.614 490.857,119.311 504.084,148.77C515.222,173.574 501.165,131.243 499.055,128.881C453.824,78.235 450.792,64.991 434.064,40.75C433.895,40.504 430.987,36.291 433.444,37.069C500.225,58.218 502.298,119.197 502.413,120.505C504.131,140.003 506.344,140.564 507.515,139.511C509.193,138.001 499.789,117.876 504.624,72.516C504.657,72.198 505.147,67.603 506.278,68.881C507.712,70.502 537.544,108.875 532.073,150.445C528.663,176.359 515.951,184.067 516.124,187.514C517.059,206.183 517.513,206.053 515.439,224.509C510.4,269.365 515.208,210.292 536.959,170.748C537.371,169.999 543.034,159.703 543.634,162.409C558.04,227.356 528.672,260.936 512.28,270.118C502.535,275.576 504.57,277.457 502.387,283.458C494.616,304.83 477.766,328.498 491.226,310.163C494.435,305.791 513.777,279.444 538.601,261.677C541.447,259.64 539.805,267.076 539.702,267.542C529.973,311.582 503.084,347.081 463.513,348.739C460.291,348.875 462.645,352.5 432.507,374.505C414.388,387.736 448.392,363.378 489.448,353.267C490.116,353.102 499.86,350.703 498.048,353.275C467.178,397.098 425.884,414.16 391.604,399.27C388.728,398.021 389.224,402.101 353.531,408.585C323.426,414.055 362.177,407.786 392.511,411.364C421.196,414.748 423.053,416.713 421.157,418.109C417.18,421.035 388.932,434.81 366.512,435.735C328.279,437.312 308.851,424.095 304.648,425.84C304.245,426.007 298.853,428.244 300.553,429.44C302.097,430.527 302.931,428.959 321.15,440.954C324.046,442.861 322.383,445.484 319.378,443.764C304.326,435.151 297.139,429.233 291.745,431.985C281.651,437.136 266.091,447.841 267.577,442.527C268.149,440.478 281.456,433.577 282.731,432.916C290.543,428.865 290.7,428.282 290.107,427.884C280.577,421.495 278.075,431.63 245.44,435.034C206.734,439.072 183.969,425.879 170.347,418.731C170.151,418.628 166.69,416.812 170.628,415.981C228.458,403.767 242.514,414.22 238.703,409.41C236.732,406.921 235.4,410.048 200.445,398.871C199.025,398.417 180.483,411.42 147.506,399.482C114.679,387.597 89.938,352.837 92.504,351.511C93.42,351.037 125.458,358.89 148.574,371.35C148.915,371.534 168.505,382.093 153.41,371.626C136.051,359.588 130.108,349.17 127.409,348.856C107.654,346.557 106.816,347.948 90.802,336.082C54.816,309.418 48.097,259.535 50.41,260.938C70.888,273.351 95.534,305.691 98.882,310.083C111.219,326.272 96.295,305.197 88.883,286.345C86.706,280.807 86.64,274.47 79.699,271.099C52.189,257.739 37.069,213.617 44.335,173.475C46.477,161.642 47.631,161.055 48.155,161.879C71.116,197.975 76.437,248.703 73.852,217.5C71.688,191.37 77.28,189.778 70.733,182.306C35.184,141.728 83.046,60.061 85.248,69.622C91.394,96.305 83.907,131.29 82.786,136.527C81.171,144.071 86.02,136.047 87.214,128.451C87.69,125.427 85.813,95.602 109.962,66.913C128.176,45.275 160.789,33.572 157.708,38.556C126.151,89.595 97.861,121.287 91.951,127.909C90.444,129.597 80.836,151.44 83.331,155.187Z" style="fill:rgb(205,84,14);"/>
            </g>
        </g>
        <g transform="matrix(1,0,0,1,-124.841406,-136.023455)">
            <g transform="matrix(140,0,0,140,464.101406,260.06)">
            </g>
            <text x="363.581px" y="260.06px" style="font-family:'Elephant-Regular', 'Elephant', serif;font-size:140px;fill:rgb(205,84,14);">3</text>
        </g>
    </g>
    <g id="silver" transform="matrix(1,0,0,1,113,123)">
        <g transform="matrix(1,0,0,1,-113,-123)">
            <g transform="matrix(1.5625,0,0,1.5625,0,0)">
                <path d="M212.666,194.207C151.063,194.207 99.002,150.103 88.877,89.328L88.592,87.639C87.48,80.966 89.221,74.51 93.497,69.466C97.627,64.587 103.675,61.794 110.093,61.794L163.257,61.794L163.257,35.31L110.093,35.31C95.877,35.31 82.464,41.517 73.291,52.345C64.036,63.276 60.093,77.724 62.472,92.008L62.757,93.689C75.016,167.285 138.06,220.689 212.663,220.689L212.685,220.689L212.685,194.206C212.675,194.207 212.675,194.207 212.666,194.207Z" style="fill:rgb(169,169,169);fill-rule:nonzero;"/>
            </g>
            <g transform="matrix(1.5625,0,0,1.5625,0,0)">
                <path d="M438.71,52.345C429.537,41.517 416.124,35.31 401.908,35.31L348.744,35.31L348.744,61.793L401.908,61.793C408.326,61.793 414.374,64.586 418.503,69.465C422.779,74.508 424.52,80.965 423.408,87.638L423.123,89.327C412.999,150.103 360.938,194.206 299.335,194.206L299.317,194.206L299.317,220.689L299.335,220.689C373.942,220.689 436.986,167.284 449.244,93.689L449.529,92.008C451.909,77.725 447.964,63.276 438.71,52.345Z" style="fill:rgb(188,186,183);fill-rule:nonzero;"/>
                <path d="M282.483,414.897L229.518,414.897L238.345,229.517L273.656,229.517L282.483,414.897Z" style="fill:rgb(193,190,189);fill-rule:nonzero;"/>
            </g>
            <g transform="matrix(1.5625,0,0,1.5625,0,0)">
                <path d="M238.345,229.517L229.518,414.897L256,414.897L256,229.517L238.345,229.517Z" style="fill:rgb(170,170,170);fill-rule:nonzero;"/>
            </g>
            <g transform="matrix(1.5625,0,0,1.5625,0,0)">
                <path d="M308.967,450.207L203.035,450.207L203.035,414.897C203.035,410.022 206.988,406.069 211.863,406.069L300.139,406.069C305.014,406.069 308.967,410.022 308.967,414.897L308.967,450.207Z" style="fill:rgb(204,204,204);fill-rule:nonzero;"/>
            </g>
            <g transform="matrix(1.5625,0,0,1.5625,0,0)">
                <path d="M256,406.069L211.862,406.069C206.987,406.069 203.034,410.022 203.034,414.897L203.034,450.207L247.172,450.207L247.172,414.897C247.173,410.022 251.125,406.069 256,406.069Z" style="fill:rgb(179,179,179);fill-rule:nonzero;"/>
            </g>
            <g transform="matrix(1.5625,0,0,1.5625,0,0)">
                <path d="M344.276,467.862L167.724,467.862L180.138,449.241C183.412,444.33 188.925,441.379 194.828,441.379L317.172,441.379C323.075,441.379 328.587,444.33 331.862,449.241L344.276,467.862Z" style="fill:rgb(179,95,82);fill-rule:nonzero;"/>
            </g>
            <g transform="matrix(1.5625,0,0,1.5625,0,0)">
                <path d="M247.794,441.379L194.828,441.379C188.925,441.379 183.413,444.329 180.138,449.241L167.724,467.862L220.69,467.862L233.104,449.241C236.379,444.329 241.891,441.379 247.794,441.379Z" style="fill:rgb(151,61,54);fill-rule:nonzero;"/>
            </g>
            <g transform="matrix(1.5625,0,0,1.5625,0,0)">
                <path d="M344.276,512L167.724,512C162.849,512 158.896,508.047 158.896,503.172L158.896,467.862C158.896,462.987 162.849,459.034 167.724,459.034L344.276,459.034C349.151,459.034 353.104,462.987 353.104,467.862L353.104,503.172C353.104,508.047 349.151,512 344.276,512Z" style="fill:rgb(153,70,53);fill-rule:nonzero;"/>
            </g>
            <g transform="matrix(1.5625,0,0,1.5625,0,0)">
                <path d="M220.69,503.172L220.69,467.862C220.69,462.987 224.643,459.034 229.518,459.034L167.725,459.034C162.85,459.034 158.897,462.987 158.897,467.862L158.897,503.172C158.897,508.047 162.85,512 167.725,512L229.518,512C224.643,512 220.69,508.047 220.69,503.172Z" style="fill:rgb(127,50,38);fill-rule:nonzero;"/>
            </g>
            <g transform="matrix(1.5625,0,0,1.5625,0,0)">
                <path d="M326.339,204.235L287.266,234.625C284.166,237.035 280.353,238.344 276.427,238.344L235.576,238.344C231.65,238.344 227.835,237.035 224.737,234.625L185.664,204.235C162.923,186.547 148.366,160.36 145.351,131.708L132.414,8.828L379.586,8.828L366.651,131.708C363.636,160.36 349.079,186.548 326.339,204.235Z" style="fill:rgb(204,204,204);fill-rule:nonzero;"/>
            </g>
            <g transform="matrix(1.5625,0,0,1.5625,0,0)">
                <path d="M254.726,234.625L236.585,204.235C226.026,186.547 219.269,160.36 217.868,131.706L211.862,8.828L132.414,8.828L145.349,131.708C148.365,160.36 162.921,186.548 185.662,204.237L224.735,234.627C227.835,237.038 231.648,238.347 235.574,238.347L259.757,238.347C257.936,238.345 256.165,237.036 254.726,234.625Z" style="fill:rgb(177,177,177);fill-rule:nonzero;"/>
            </g>
            <g transform="matrix(1.5625,0,0,1.5625,0,0)">
                <path d="M379.587,17.655L132.414,17.655C127.539,17.655 123.586,13.702 123.586,8.827C123.586,3.952 127.539,-0.001 132.414,-0.001L379.586,-0.001C384.461,-0.001 388.414,3.952 388.414,8.827C388.414,13.703 384.462,17.655 379.587,17.655Z" style="fill:rgb(204,204,204);fill-rule:nonzero;"/>
                <path d="M282.483,300.138L229.517,300.138C224.642,300.138 220.689,296.185 220.689,291.31L220.689,282.482C220.689,277.607 224.642,273.654 229.517,273.654L282.483,273.654C287.358,273.654 291.311,277.607 291.311,282.482L291.311,291.31C291.311,296.185 287.358,300.138 282.483,300.138Z" style="fill:rgb(204,204,204);fill-rule:nonzero;"/>
            </g>
            <g transform="matrix(1.5625,0,0,1.5625,0,0)">
                <path d="M247.173,291.31L247.173,282.482C247.173,277.607 251.126,273.654 256.001,273.654L229.518,273.654C224.643,273.654 220.69,277.607 220.69,282.482L220.69,291.31C220.69,296.185 224.643,300.138 229.518,300.138L256,300.138C251.125,300.138 247.173,296.185 247.173,291.31Z" style="fill:rgb(193,190,187);fill-rule:nonzero;"/>
                <path d="M376.799,35.31L378.657,17.655L133.343,17.655L135.201,35.31L376.799,35.31Z" style="fill:rgb(181,181,181);fill-rule:nonzero;"/>
            </g>
            <g transform="matrix(1.5625,0,0,1.5625,0,0)">
                <path d="M212.294,17.655L133.343,17.655L135.201,35.31L213.157,35.31L212.294,17.655Z" style="fill:rgb(162,157,157);fill-rule:nonzero;"/>
            </g>
            <g transform="matrix(1.5625,0,0,1.5625,0,0)">
                <path d="M203.035,8.828C203.035,3.953 206.988,0 211.863,0L132.415,0C127.54,0 123.587,3.953 123.587,8.828C123.587,13.703 127.54,17.656 132.415,17.656L211.863,17.656C206.987,17.655 203.035,13.703 203.035,8.828Z" style="fill:rgb(170,170,170);fill-rule:nonzero;"/>
            </g>
            <g transform="matrix(1.5625,0,0,1.5625,0,0)">
                <g transform="matrix(1,0,0,1,16.83125,-17.368)">
                    <path d="M361.475,44.658C348.302,41.654 337.932,31.285 334.929,18.112C334.703,17.12 333.39,17.12 333.163,18.112C330.159,31.285 319.79,41.655 306.617,44.658C305.625,44.884 305.625,46.197 306.617,46.424C319.79,49.428 330.16,59.797 333.163,72.97C333.389,73.962 334.702,73.962 334.929,72.97C337.933,59.797 348.302,49.427 361.475,46.424C362.467,46.198 362.467,44.884 361.475,44.658Z" style="fill:white;fill-rule:nonzero;"/>
                </g>
                <g transform="matrix(1,0,0,1,16.83125,-17.368)">
                    <path d="M322.83,84.564C313.556,82.162 306.253,74.859 303.851,65.585C303.609,64.654 302.404,64.654 302.163,65.585C299.761,74.859 292.458,82.162 283.184,84.564C282.253,84.806 282.253,86.011 283.184,86.252C292.458,88.654 299.761,95.956 302.163,105.231C302.405,106.162 303.61,106.162 303.851,105.231C306.253,95.955 313.556,88.654 322.83,86.252C323.761,86.012 323.761,84.806 322.83,84.564Z" style="fill:white;fill-rule:nonzero;"/>
                </g>
            </g>
            <g transform="matrix(0.431417,0,0,0.431417,272.72846,113.287802)">
                <path d="M83.331,155.187C87.083,146.677 94.321,126.662 120.65,116.934C128.541,114.018 130.809,114.692 129.992,116.593C93.487,201.501 76.342,193.144 76.592,205.499C77.228,236.904 80.338,248.231 80.552,240.523C80.573,239.755 77.704,216.354 94.918,195.861C99.325,190.614 107.781,183.357 107.898,186.314C110.283,246.621 96.222,277.449 92.918,284.692C90.877,289.167 121.165,341.626 109.807,316.427C95.569,284.838 113.854,256.789 115.244,259.735C140.994,314.289 140.952,347.57 140.942,355.503C140.935,361.111 192.745,396.861 167.965,376.168C146.4,358.16 146.791,320.229 151.29,323.872C158.425,329.647 181.632,353.173 184.208,355.784C205.129,376.992 214.785,400.167 216.422,400.693C229.838,405.011 231.949,403.312 250.566,410.209C273.588,418.739 236.167,402.566 226.707,394.233C209.948,379.469 207.504,365.573 210.518,366.357C295.923,388.582 290.226,418.952 295.61,417.696C296.755,417.428 305.679,389.599 350.46,375.365C379.589,366.105 381.451,364.943 381.396,367.496C381.381,368.202 375.796,386.849 358.251,398.108C348.414,404.42 318.043,417.868 343.552,408.726C354.815,404.689 374.01,401.995 375.378,399.422C395.326,361.911 398.069,363.779 438.415,324.369C443.316,319.582 444.5,357.068 422.098,376.181C398.997,395.889 449.082,361.113 449.134,355.5C449.43,323.813 453.597,311.959 473.756,262.605C474.891,259.826 475.714,258.186 477.151,260.74C498.357,298.455 473.473,322.743 479.538,321.65C480.106,321.548 498.865,288.2 497.188,284.641C478.803,245.605 483.916,212.481 482.102,187.466C481.593,180.443 503.701,198.827 508.568,223.488C509.527,228.35 510.542,252.625 511.582,239.523C514.562,201.966 513.697,201.35 510.883,199.044C490.774,182.562 475.038,150.385 460.105,116.584C457.909,111.614 490.857,119.311 504.084,148.77C515.222,173.574 501.165,131.243 499.055,128.881C453.824,78.235 450.792,64.991 434.064,40.75C433.895,40.504 430.987,36.291 433.444,37.069C500.225,58.218 502.298,119.197 502.413,120.505C504.131,140.003 506.344,140.564 507.515,139.511C509.193,138.001 499.789,117.876 504.624,72.516C504.657,72.198 505.147,67.603 506.278,68.881C507.712,70.502 537.544,108.875 532.073,150.445C528.663,176.359 515.951,184.067 516.124,187.514C517.059,206.183 517.513,206.053 515.439,224.509C510.4,269.365 515.208,210.292 536.959,170.748C537.371,169.999 543.034,159.703 543.634,162.409C558.04,227.356 528.672,260.936 512.28,270.118C502.535,275.576 504.57,277.457 502.387,283.458C494.616,304.83 477.766,328.498 491.226,310.163C494.435,305.791 513.777,279.444 538.601,261.677C541.447,259.64 539.805,267.076 539.702,267.542C529.973,311.582 503.084,347.081 463.513,348.739C460.291,348.875 462.645,352.5 432.507,374.505C414.388,387.736 448.392,363.378 489.448,353.267C490.116,353.102 499.86,350.703 498.048,353.275C467.178,397.098 425.884,414.16 391.604,399.27C388.728,398.021 389.224,402.101 353.531,408.585C323.426,414.055 362.177,407.786 392.511,411.364C421.196,414.748 423.053,416.713 421.157,418.109C417.18,421.035 388.932,434.81 366.512,435.735C328.279,437.312 308.851,424.095 304.648,425.84C304.245,426.007 298.853,428.244 300.553,429.44C302.097,430.527 302.931,428.959 321.15,440.954C324.046,442.861 322.383,445.484 319.378,443.764C304.326,435.151 297.139,429.233 291.745,431.985C281.651,437.136 266.091,447.841 267.577,442.527C268.149,440.478 281.456,433.577 282.731,432.916C290.543,428.865 290.7,428.282 290.107,427.884C280.577,421.495 278.075,431.63 245.44,435.034C206.734,439.072 183.969,425.879 170.347,418.731C170.151,418.628 166.69,416.812 170.628,415.981C228.458,403.767 242.514,414.22 238.703,409.41C236.732,406.921 235.4,410.048 200.445,398.871C199.025,398.417 180.483,411.42 147.506,399.482C114.679,387.597 89.938,352.837 92.504,351.511C93.42,351.037 125.458,358.89 148.574,371.35C148.915,371.534 168.505,382.093 153.41,371.626C136.051,359.588 130.108,349.17 127.409,348.856C107.654,346.557 106.816,347.948 90.802,336.082C54.816,309.418 48.097,259.535 50.41,260.938C70.888,273.351 95.534,305.691 98.882,310.083C111.219,326.272 96.295,305.197 88.883,286.345C86.706,280.807 86.64,274.47 79.699,271.099C52.189,257.739 37.069,213.617 44.335,173.475C46.477,161.642 47.631,161.055 48.155,161.879C71.116,197.975 76.437,248.703 73.852,217.5C71.688,191.37 77.28,189.778 70.733,182.306C35.184,141.728 83.046,60.061 85.248,69.622C91.394,96.305 83.907,131.29 82.786,136.527C81.171,144.071 86.02,136.047 87.214,128.451C87.69,125.427 85.813,95.602 109.962,66.913C128.176,45.275 160.789,33.572 157.708,38.556C126.151,89.595 97.861,121.287 91.951,127.909C90.444,129.597 80.836,151.44 83.331,155.187Z" style="fill:rgb(105,105,105);"/>
            </g>
        </g>
        <g transform="matrix(1,0,0,1,-124.841406,-136.023455)">
            <g transform="matrix(140,0,0,140,465.011406,260.06)">
            </g>
            <text x="362.671px" y="260.06px" style="font-family:'Elephant-Regular', 'Elephant', serif;font-size:140px;fill:rgb(105,105,105);">2</text>
        </g>
    </g>
    <g id="gold" transform="matrix(1,0,0,1,113,123)">
        <g transform="matrix(1,0,0,1,-113,-123)">
            <g transform="matrix(1.5625,0,0,1.5625,0,0)">
                <path d="M212.666,194.207C151.063,194.207 99.002,150.103 88.877,89.328L88.592,87.639C87.48,80.966 89.221,74.51 93.497,69.466C97.627,64.587 103.675,61.794 110.093,61.794L163.257,61.794L163.257,35.31L110.093,35.31C95.877,35.31 82.464,41.517 73.291,52.345C64.036,63.276 60.093,77.724 62.472,92.008L62.757,93.689C75.016,167.285 138.06,220.689 212.663,220.689L212.685,220.689L212.685,194.206C212.675,194.207 212.675,194.207 212.666,194.207Z" style="fill:rgb(255,191,40);fill-rule:nonzero;"/>
            </g>
            <g transform="matrix(1.5625,0,0,1.5625,0,0)">
                <path d="M438.71,52.345C429.537,41.517 416.124,35.31 401.908,35.31L348.744,35.31L348.744,61.793L401.908,61.793C408.326,61.793 414.374,64.586 418.503,69.465C422.779,74.508 424.52,80.965 423.408,87.638L423.123,89.327C412.999,150.103 360.938,194.206 299.335,194.206L299.317,194.206L299.317,220.689L299.335,220.689C373.942,220.689 436.986,167.284 449.244,93.689L449.529,92.008C451.909,77.725 447.964,63.276 438.71,52.345Z" style="fill:rgb(255,208,36);fill-rule:nonzero;"/>
                <path d="M282.483,414.897L229.518,414.897L238.345,229.517L273.656,229.517L282.483,414.897Z" style="fill:rgb(255,207,72);fill-rule:nonzero;"/>
            </g>
            <g transform="matrix(1.5625,0,0,1.5625,0,0)">
                <path d="M238.345,229.517L229.518,414.897L256,414.897L256,229.517L238.345,229.517Z" style="fill:rgb(255,195,40);fill-rule:nonzero;"/>
            </g>
            <g transform="matrix(1.5625,0,0,1.5625,0,0)">
                <path d="M308.967,450.207L203.035,450.207L203.035,414.897C203.035,410.022 206.988,406.069 211.863,406.069L300.139,406.069C305.014,406.069 308.967,410.022 308.967,414.897L308.967,450.207Z" style="fill:rgb(255,222,101);fill-rule:nonzero;"/>
            </g>
            <g transform="matrix(1.5625,0,0,1.5625,0,0)">
                <path d="M256,406.069L211.862,406.069C206.987,406.069 203.034,410.022 203.034,414.897L203.034,450.207L247.172,450.207L247.172,414.897C247.173,410.022 251.125,406.069 256,406.069Z" style="fill:rgb(255,201,55);fill-rule:nonzero;"/>
            </g>
            <g transform="matrix(1.5625,0,0,1.5625,0,0)">
                <path d="M344.276,467.862L167.724,467.862L180.138,449.241C183.412,444.33 188.925,441.379 194.828,441.379L317.172,441.379C323.075,441.379 328.587,444.33 331.862,449.241L344.276,467.862Z" style="fill:rgb(179,95,82);fill-rule:nonzero;"/>
            </g>
            <g transform="matrix(1.5625,0,0,1.5625,0,0)">
                <path d="M247.794,441.379L194.828,441.379C188.925,441.379 183.413,444.329 180.138,449.241L167.724,467.862L220.69,467.862L233.104,449.241C236.379,444.329 241.891,441.379 247.794,441.379Z" style="fill:rgb(151,61,54);fill-rule:nonzero;"/>
            </g>
            <g transform="matrix(1.5625,0,0,1.5625,0,0)">
                <path d="M344.276,512L167.724,512C162.849,512 158.896,508.047 158.896,503.172L158.896,467.862C158.896,462.987 162.849,459.034 167.724,459.034L344.276,459.034C349.151,459.034 353.104,462.987 353.104,467.862L353.104,503.172C353.104,508.047 349.151,512 344.276,512Z" style="fill:rgb(153,70,53);fill-rule:nonzero;"/>
            </g>
            <g transform="matrix(1.5625,0,0,1.5625,0,0)">
                <path d="M220.69,503.172L220.69,467.862C220.69,462.987 224.643,459.034 229.518,459.034L167.725,459.034C162.85,459.034 158.897,462.987 158.897,467.862L158.897,503.172C158.897,508.047 162.85,512 167.725,512L229.518,512C224.643,512 220.69,508.047 220.69,503.172Z" style="fill:rgb(127,50,38);fill-rule:nonzero;"/>
            </g>
            <g transform="matrix(1.5625,0,0,1.5625,0,0)">
                <path d="M326.339,204.235L287.266,234.625C284.166,237.035 280.353,238.344 276.427,238.344L235.576,238.344C231.65,238.344 227.835,237.035 224.737,234.625L185.664,204.235C162.923,186.547 148.366,160.36 145.351,131.708L132.414,8.828L379.586,8.828L366.651,131.708C363.636,160.36 349.079,186.548 326.339,204.235Z" style="fill:rgb(255,222,101);fill-rule:nonzero;"/>
            </g>
            <g transform="matrix(1.5625,0,0,1.5625,0,0)">
                <path d="M254.726,234.625L236.585,204.235C226.026,186.547 219.269,160.36 217.868,131.706L211.862,8.828L132.414,8.828L145.349,131.708C148.365,160.36 162.921,186.548 185.662,204.237L224.735,234.627C227.835,237.038 231.648,238.347 235.574,238.347L259.757,238.347C257.936,238.345 256.165,237.036 254.726,234.625Z" style="fill:rgb(255,201,55);fill-rule:nonzero;"/>
            </g>
            <g transform="matrix(1.5625,0,0,1.5625,0,0)">
                <path d="M379.587,17.655L132.414,17.655C127.539,17.655 123.586,13.702 123.586,8.827C123.586,3.952 127.539,-0.001 132.414,-0.001L379.586,-0.001C384.461,-0.001 388.414,3.952 388.414,8.827C388.414,13.703 384.462,17.655 379.587,17.655Z" style="fill:rgb(255,222,101);fill-rule:nonzero;"/>
                <path d="M282.483,300.138L229.517,300.138C224.642,300.138 220.689,296.185 220.689,291.31L220.689,282.482C220.689,277.607 224.642,273.654 229.517,273.654L282.483,273.654C287.358,273.654 291.311,277.607 291.311,282.482L291.311,291.31C291.311,296.185 287.358,300.138 282.483,300.138Z" style="fill:rgb(255,222,101);fill-rule:nonzero;"/>
            </g>
            <g transform="matrix(1.5625,0,0,1.5625,0,0)">
                <path d="M247.173,291.31L247.173,282.482C247.173,277.607 251.126,273.654 256.001,273.654L229.518,273.654C224.643,273.654 220.69,277.607 220.69,282.482L220.69,291.31C220.69,296.185 224.643,300.138 229.518,300.138L256,300.138C251.125,300.138 247.173,296.185 247.173,291.31Z" style="fill:rgb(255,201,55);fill-rule:nonzero;"/>
                <path d="M376.799,35.31L378.657,17.655L133.343,17.655L135.201,35.31L376.799,35.31Z" style="fill:rgb(255,208,40);fill-rule:nonzero;"/>
            </g>
            <g transform="matrix(1.5625,0,0,1.5625,0,0)">
                <path d="M212.294,17.655L133.343,17.655L135.201,35.31L213.157,35.31L212.294,17.655Z" style="fill:rgb(255,184,0);fill-rule:nonzero;"/>
            </g>
            <g transform="matrix(1.5625,0,0,1.5625,0,0)">
                <path d="M203.035,8.828C203.035,3.953 206.988,0 211.863,0L132.415,0C127.54,0 123.587,3.953 123.587,8.828C123.587,13.703 127.54,17.656 132.415,17.656L211.863,17.656C206.987,17.655 203.035,13.703 203.035,8.828Z" style="fill:rgb(255,201,55);fill-rule:nonzero;"/>
            </g>
            <g transform="matrix(1.5625,0,0,1.5625,0,0)">
                <g transform="matrix(1,0,0,1,16.83125,-17.368)">
                    <path d="M361.475,44.658C348.302,41.654 337.932,31.285 334.929,18.112C334.703,17.12 333.39,17.12 333.163,18.112C330.159,31.285 319.79,41.655 306.617,44.658C305.625,44.884 305.625,46.197 306.617,46.424C319.79,49.428 330.16,59.797 333.163,72.97C333.389,73.962 334.702,73.962 334.929,72.97C337.933,59.797 348.302,49.427 361.475,46.424C362.467,46.198 362.467,44.884 361.475,44.658Z" style="fill:white;fill-rule:nonzero;"/>
                </g>
                <g transform="matrix(1,0,0,1,16.83125,-17.368)">
                    <path d="M322.83,84.564C313.556,82.162 306.253,74.859 303.851,65.585C303.609,64.654 302.404,64.654 302.163,65.585C299.761,74.859 292.458,82.162 283.184,84.564C282.253,84.806 282.253,86.011 283.184,86.252C292.458,88.654 299.761,95.956 302.163,105.231C302.405,106.162 303.61,106.162 303.851,105.231C306.253,95.955 313.556,88.654 322.83,86.252C323.761,86.012 323.761,84.806 322.83,84.564Z" style="fill:white;fill-rule:nonzero;"/>
                </g>
            </g>
            <g transform="matrix(0.431417,0,0,0.431417,272.72846,113.287802)">
                <path d="M83.331,155.187C87.083,146.677 94.321,126.662 120.65,116.934C128.541,114.018 130.809,114.692 129.992,116.593C93.487,201.501 76.342,193.144 76.592,205.499C77.228,236.904 80.338,248.231 80.552,240.523C80.573,239.755 77.704,216.354 94.918,195.861C99.325,190.614 107.781,183.357 107.898,186.314C110.283,246.621 96.222,277.449 92.918,284.692C90.877,289.167 121.165,341.626 109.807,316.427C95.569,284.838 113.854,256.789 115.244,259.735C140.994,314.289 140.952,347.57 140.942,355.503C140.935,361.111 192.745,396.861 167.965,376.168C146.4,358.16 146.791,320.229 151.29,323.872C158.425,329.647 181.632,353.173 184.208,355.784C205.129,376.992 214.785,400.167 216.422,400.693C229.838,405.011 231.949,403.312 250.566,410.209C273.588,418.739 236.167,402.566 226.707,394.233C209.948,379.469 207.504,365.573 210.518,366.357C295.923,388.582 290.226,418.952 295.61,417.696C296.755,417.428 305.679,389.599 350.46,375.365C379.589,366.105 381.451,364.943 381.396,367.496C381.381,368.202 375.796,386.849 358.251,398.108C348.414,404.42 318.043,417.868 343.552,408.726C354.815,404.689 374.01,401.995 375.378,399.422C395.326,361.911 398.069,363.779 438.415,324.369C443.316,319.582 444.5,357.068 422.098,376.181C398.997,395.889 449.082,361.113 449.134,355.5C449.43,323.813 453.597,311.959 473.756,262.605C474.891,259.826 475.714,258.186 477.151,260.74C498.357,298.455 473.473,322.743 479.538,321.65C480.106,321.548 498.865,288.2 497.188,284.641C478.803,245.605 483.916,212.481 482.102,187.466C481.593,180.443 503.701,198.827 508.568,223.488C509.527,228.35 510.542,252.625 511.582,239.523C514.562,201.966 513.697,201.35 510.883,199.044C490.774,182.562 475.038,150.385 460.105,116.584C457.909,111.614 490.857,119.311 504.084,148.77C515.222,173.574 501.165,131.243 499.055,128.881C453.824,78.235 450.792,64.991 434.064,40.75C433.895,40.504 430.987,36.291 433.444,37.069C500.225,58.218 502.298,119.197 502.413,120.505C504.131,140.003 506.344,140.564 507.515,139.511C509.193,138.001 499.789,117.876 504.624,72.516C504.657,72.198 505.147,67.603 506.278,68.881C507.712,70.502 537.544,108.875 532.073,150.445C528.663,176.359 515.951,184.067 516.124,187.514C517.059,206.183 517.513,206.053 515.439,224.509C510.4,269.365 515.208,210.292 536.959,170.748C537.371,169.999 543.034,159.703 543.634,162.409C558.04,227.356 528.672,260.936 512.28,270.118C502.535,275.576 504.57,277.457 502.387,283.458C494.616,304.83 477.766,328.498 491.226,310.163C494.435,305.791 513.777,279.444 538.601,261.677C541.447,259.64 539.805,267.076 539.702,267.542C529.973,311.582 503.084,347.081 463.513,348.739C460.291,348.875 462.645,352.5 432.507,374.505C414.388,387.736 448.392,363.378 489.448,353.267C490.116,353.102 499.86,350.703 498.048,353.275C467.178,397.098 425.884,414.16 391.604,399.27C388.728,398.021 389.224,402.101 353.531,408.585C323.426,414.055 362.177,407.786 392.511,411.364C421.196,414.748 423.053,416.713 421.157,418.109C417.18,421.035 388.932,434.81 366.512,435.735C328.279,437.312 308.851,424.095 304.648,425.84C304.245,426.007 298.853,428.244 300.553,429.44C302.097,430.527 302.931,428.959 321.15,440.954C324.046,442.861 322.383,445.484 319.378,443.764C304.326,435.151 297.139,429.233 291.745,431.985C281.651,437.136 266.091,447.841 267.577,442.527C268.149,440.478 281.456,433.577 282.731,432.916C290.543,428.865 290.7,428.282 290.107,427.884C280.577,421.495 278.075,431.63 245.44,435.034C206.734,439.072 183.969,425.879 170.347,418.731C170.151,418.628 166.69,416.812 170.628,415.981C228.458,403.767 242.514,414.22 238.703,409.41C236.732,406.921 235.4,410.048 200.445,398.871C199.025,398.417 180.483,411.42 147.506,399.482C114.679,387.597 89.938,352.837 92.504,351.511C93.42,351.037 125.458,358.89 148.574,371.35C148.915,371.534 168.505,382.093 153.41,371.626C136.051,359.588 130.108,349.17 127.409,348.856C107.654,346.557 106.816,347.948 90.802,336.082C54.816,309.418 48.097,259.535 50.41,260.938C70.888,273.351 95.534,305.691 98.882,310.083C111.219,326.272 96.295,305.197 88.883,286.345C86.706,280.807 86.64,274.47 79.699,271.099C52.189,257.739 37.069,213.617 44.335,173.475C46.477,161.642 47.631,161.055 48.155,161.879C71.116,197.975 76.437,248.703 73.852,217.5C71.688,191.37 77.28,189.778 70.733,182.306C35.184,141.728 83.046,60.061 85.248,69.622C91.394,96.305 83.907,131.29 82.786,136.527C81.171,144.071 86.02,136.047 87.214,128.451C87.69,125.427 85.813,95.602 109.962,66.913C128.176,45.275 160.789,33.572 157.708,38.556C126.151,89.595 97.861,121.287 91.951,127.909C90.444,129.597 80.836,151.44 83.331,155.187Z" style="fill:rgb(205,123,14);"/>
            </g>
        </g>
        <g transform="matrix(1,0,0,1,-126.841406,-136.023455)">
            <g transform="matrix(140,0,0,140,450.731406,260.06)">
            </g>
            <text x="376.951px" y="260.06px" style="font-family:'Elephant-Regular', 'Elephant', serif;font-size:140px;fill:rgb(205,123,14);">1</text>
        </g>
    </g>
</svg>
