<?xml version="1.0" encoding="UTF-8" standalone="no"?>
<!DOCTYPE svg PUBLIC "-//W3C//DTD SVG 1.1//EN" "http://www.w3.org/Graphics/SVG/1.1/DTD/svg11.dtd">
<svg width="100%" height="100%" viewBox="0 0 20 20" version="1.1" xmlns="http://www.w3.org/2000/svg" xmlns:xlink="http://www.w3.org/1999/xlink" xml:space="preserve" xmlns:serif="http://www.serif.com/" style="fill-rule:evenodd;clip-rule:evenodd;stroke-linejoin:round;stroke-miterlimit:2;">
    <g id="fond" transform="matrix(1.249017,0,0,1.249017,0.007864,0.007864)">
        <path d="M13.893,0C14.452,-0 14.988,0.222 15.383,0.617C15.778,1.012 16,1.548 16,2.107L16,13.893C16,14.452 15.778,14.988 15.383,15.383C14.988,15.778 14.452,16 13.893,16L2.107,16C1.548,16 1.012,15.778 0.617,15.383C0.222,14.988 -0,14.452 0,13.893L0,2.107C-0,1.548 0.222,1.012 0.617,0.617C1.012,0.222 1.548,-0 2.107,0L13.893,0Z" style="fill:rgb(245,239,212);"/>
        <g transform="matrix(0.895068,0,0,0.895068,0.839454,0.839454)">
            <path d="M13.646,-0C14.946,0 16,1.054 16,2.354L16,13.646C16,14.946 14.946,16 13.646,16L2.354,16C1.054,16 0,14.946 0,13.646L-0,2.354C0,1.054 1.054,0 2.354,0L13.646,-0Z" style="fill:rgb(255,249,225);"/>
        </g>
        <g transform="matrix(0.80063,0,0,0.80063,-0.258132,-0.279119)">
            <path d="M1.467,1.019C1.615,0.919 2.223,0.541 2.819,0.492C4.479,0.357 7.967,0.419 11.262,0.487C13.967,0.543 16.678,0.415 18.274,0.63C18.591,0.673 16.72,0.625 14.887,0.621C13.377,0.617 12.122,0.664 10.154,0.63C9.458,0.618 7.726,0.611 6.143,0.639C4.51,0.669 3.034,0.736 2.875,0.76C0.466,1.143 0.577,3.775 0.577,3.775C0.434,2.65 0.646,1.574 1.467,1.019Z" style="fill:white;"/>
        </g>
        <g transform="matrix(-0.80063,-0,0,-0.80063,16.303733,16.329652)">
            <path d="M1.467,1.019C1.615,0.919 2.223,0.541 2.819,0.492C4.479,0.357 7.967,0.419 11.262,0.487C13.967,0.543 16.678,0.415 18.274,0.63C18.591,0.673 16.72,0.625 14.887,0.621C13.377,0.617 12.122,0.664 10.154,0.63C9.458,0.618 7.726,0.611 6.143,0.639C4.51,0.669 3.034,0.736 2.875,0.76C0.466,1.143 0.577,3.775 0.577,3.775C0.434,2.65 0.646,1.574 1.467,1.019Z" style="fill:rgb(237,226,185);"/>
        </g>
    </g>
    <g id="_3" serif:id="3" transform="matrix(1,0,0,1,2,2)">
        <g>
            <circle cx="8" cy="8" r="1.52" style="fill:rgb(96,0,12);"/>
        </g>
        <g transform="matrix(1,0,0,1,-4.466579,-4.487549)">
            <circle cx="8" cy="8" r="1.52" style="fill:rgb(96,0,12);"/>
        </g>
        <g transform="matrix(1,0,0,1,4.487549,4.613368)">
            <circle cx="8" cy="8" r="1.52" style="fill:rgb(96,0,12);"/>
        </g>
    </g>
</svg>
